<!-- icon666.com - MILLIONS OF FREE VECTOR ICONS --><svg version="1.1" id="Capa_1" xmlns="http://www.w3.org/2000/svg" xmlns:xlink="http://www.w3.org/1999/xlink" x="0px" y="0px" viewBox="0 0 512 512" style="enable-background:new 0 0 512 512;" xml:space="preserve"><path style="fill:#994C0F;" d="M44.87,512c-11.976,0-23.25-4.671-31.741-13.147c-17.481-17.525-17.481-46.001,0-63.482 l21.317-21.302c2.812-2.812,6.617-4.393,10.599-4.393l0,0c3.982,0,7.789,1.581,10.599,4.393l42.253,42.283 c5.856,5.856,5.856,15.344,0,21.2l-21.288,21.288C68.149,507.33,56.876,512,44.87,512z"></path><path style="fill:#713708;" d="M13.129,498.853C21.62,507.329,32.893,512,44.87,512c12.006,0,23.279-4.671,31.741-13.162 l21.288-21.288c5.856-5.856,5.856-15.344,0-21.2l-23.132-23.148l-63.571,63.571C11.816,497.481,12.455,498.177,13.129,498.853z"></path><path style="fill:#BF6015;" d="M87.556,367.104c3.888,0.067,7.592,1.64,10.342,4.39l42.575,42.575 c2.812,2.811,4.393,6.646,4.393,10.629s-1.61,7.804-4.422,10.614c-0.423,0.423,4.666-4.634-53.179,52.813 c-15.25-15.261-50.989-51.025-63.368-63.412l52.772-53.175C79.451,368.698,83.287,367.117,87.556,367.104z"></path><path style="fill:#994C10;" d="M87.266,488.126c57.844-57.447,52.756-52.39,53.179-52.813c2.812-2.811,4.422-6.632,4.422-10.614 s-1.581-7.818-4.393-10.629l-23.287-23.287l-63.62,63.62C66.246,467.092,79.448,480.302,87.266,488.126z"></path><path style="fill:#994C0F;" d="M126.422,325.243c4.895-1.147,14.245-3.81,18.049-0.015l38.285,46.266 c2.982,2.99,4.447,6.927,4.383,10.846c-0.06,3.737-1.509,7.458-4.354,10.324c-3.052,3.075,13.822-13.918-52.875,53.241 c-29.145-29.145-33.433-33.433-63.857-63.857c8.61-8.547,56.306-55.884,53.25-52.866 C121.346,327.165,123.819,325.853,126.422,325.243z"></path><path style="fill:#713708;" d="M129.91,445.905c66.697-67.158,49.823-50.165,52.875-53.241c2.844-2.865,4.294-6.587,4.354-10.325 c0.063-3.919-1.4-7.856-4.383-10.846L161.8,346.169l-65.813,65.813C105.425,421.42,113.934,429.929,129.91,445.905z"></path><path style="fill:#BF6015;" d="M240.635,211.08c0.975-0.197,1.974-0.299,2.982-0.299c3.982,0,7.789,1.581,10.599,4.393 l42.576,42.589c2.811,2.811,4.393,6.632,4.393,10.614c0,3.982-1.581,7.789-4.393,10.599 c-12.319,12.318,40.689-40.565-124.643,124.306c-15.275-15.27-51.071-51.054-63.47-63.448l124.309-124.646 C235.088,213.078,237.759,211.663,240.635,211.08z"></path><path style="fill:#994C10;" d="M172.151,403.285c165.332-164.871,112.324-111.988,124.642-124.306 c2.811-2.812,4.393-6.618,4.393-10.599c0-3.982-1.581-7.804-4.393-10.614l-23.29-23.298l-135.09,135.09 C151.108,382.249,164.323,395.459,172.151,403.285z"></path><path style="fill:#8B8892;" d="M347.069,295.784c-34.552,0-69.104-13.147-95.399-39.457c-25.446-25.446-39.471-59.339-39.471-95.413 s14.026-69.968,39.471-95.413c52.589-52.618,138.208-52.618,190.797,0c25.446,25.446,39.471,59.339,39.471,95.413 s-14.026,69.968-39.471,95.413C416.173,282.637,381.621,295.784,347.069,295.784z"></path><path style="fill:#787780;" d="M251.671,256.328c26.295,26.309,60.847,39.457,95.399,39.457s69.104-13.147,95.398-39.457 c25.446-25.446,39.471-59.339,39.471-95.413s-14.026-69.968-39.471-95.413L251.657,256.313 C251.661,256.318,251.666,256.323,251.671,256.328z"></path><path style="fill:#AEADB3;" d="M283.47,116.305c-3.836,0-7.672-1.464-10.599-4.393l-42.4-42.415c-5.856-5.856-5.856-15.344,0-21.2 c5.856-5.856,15.344-5.856,21.2,0l42.4,42.415c5.856,5.856,5.856,15.344,0,21.2C291.142,114.841,287.306,116.305,283.47,116.305z"></path><path style="fill:#8B8892;" d="M453.068,285.918c-3.836,0-7.672-1.464-10.599-4.393l-42.4-42.415c-5.856-5.856-5.856-15.344,0-21.2 c5.856-5.856,15.344-5.856,21.2,0l42.4,42.415c5.856,5.856,5.856,15.344,0,21.2C460.74,284.453,456.904,285.918,453.068,285.918z"></path><path style="fill:#AEADB3;" d="M257.117,179.905h-59.968c-8.287,0-14.992-6.705-14.992-14.992c0-8.287,6.705-14.992,14.992-14.992 h59.968c8.287,0,14.992,6.705,14.992,14.992C272.109,173.199,265.403,179.905,257.117,179.905z"></path><g><path style="fill:#8B8892;" d="M496.99,179.905h-59.968c-8.287,0-14.992-6.705-14.992-14.992c0-8.287,6.705-14.992,14.992-14.992 h59.968c8.287,0,14.992,6.705,14.992,14.992C511.982,173.199,505.276,179.905,496.99,179.905z"></path><path style="fill:#8B8892;" d="M347.069,329.825c-8.287,0-14.992-6.705-14.992-14.992v-59.968c0-8.287,6.705-14.992,14.992-14.992 c8.287,0,14.992,6.705,14.992,14.992v59.968C362.061,323.12,355.356,329.825,347.069,329.825z"></path></g><g><path style="fill:#AEADB3;" d="M347.069,89.952c-8.287,0-14.992-6.705-14.992-14.992V14.992C332.077,6.705,338.782,0,347.069,0 c8.287,0,14.992,6.705,14.992,14.992V74.96C362.061,83.247,355.356,89.952,347.069,89.952z"></path><circle style="fill:#AEADB3;" cx="347.066" cy="164.913" r="14.992"></circle></g><path style="fill:#8B8892;" d="M357.67,154.312c-0.687-0.687-1.427-1.285-2.202-1.811l-20.811,20.811 c0.526,0.775,1.124,1.515,1.811,2.202c5.855,5.855,15.347,5.855,21.202,0C363.525,169.659,363.525,160.166,357.67,154.312z"></path><path style="fill:#AEADB3;" d="M241.07,285.918c-3.836,0-7.672-1.464-10.599-4.393c-5.856-5.856-5.856-15.344,0-21.2l42.4-42.415 c5.856-5.856,15.344-5.856,21.2,0c5.856,5.856,5.856,15.344,0,21.2l-42.4,42.415C248.742,284.453,244.906,285.918,241.07,285.918z"></path><path style="fill:#8B8892;" d="M230.471,281.526c2.928,2.928,6.764,4.393,10.599,4.393s7.672-1.464,10.599-4.393l42.4-42.415 c5.856-5.856,5.856-15.344,0-21.2c-0.687-0.687-1.427-1.285-2.202-1.811l-63.215,63.215 C229.18,280.094,229.782,280.836,230.471,281.526z"></path><path style="fill:#AEADB3;" d="M410.668,116.305c-3.836,0-7.672-1.464-10.599-4.393c-5.856-5.856-5.856-15.344,0-21.2l42.4-42.415 c5.856-5.856,15.344-5.856,21.2,0c5.856,5.856,5.856,15.344,0,21.2l-42.4,42.415C418.34,114.841,414.504,116.305,410.668,116.305z"></path><path style="fill:#8B8892;" d="M400.069,111.914c2.928,2.928,6.764,4.393,10.599,4.393c3.835,0,7.672-1.464,10.599-4.393 l42.4-42.415c5.856-5.856,5.856-15.344,0-21.2c-0.685-0.685-1.421-1.28-2.193-1.805l-63.217,63.217 C398.783,110.487,399.382,111.227,400.069,111.914z"></path></svg>