<!-- icon666.com - MILLIONS OF FREE VECTOR ICONS --><svg viewBox="0 0 512 512" xmlns="http://www.w3.org/2000/svg"><path d="m512 256c0 141.386719-114.613281 256-256 256s-256-114.613281-256-256 114.613281-256 256-256 256 114.613281 256 256zm0 0" fill="#f92814"></path><path d="m507.867188 302.011719-251.867188-251.867188-8.878906 289.308594-33.550782 103.277344 68 68c114.070313-11.3125 206.113282-97.496094 226.296876-208.71875zm0 0" fill="#db0404"></path><path d="m273 346.527344v-31.386719l66.917969-66.914063-83.917969-198.082031-83.917969 198.082031 66.917969 66.917969v31.382813c-23.992188 7.300781-41.5 29.625-41.5 55.972656 0 32.257812 26.242188 58.5 58.5 58.5s58.5-26.242188 58.5-58.5c0-26.347656-17.507812-48.671875-41.5-55.972656zm-17 80.472656c-13.511719 0-24.5-10.992188-24.5-24.5s10.988281-24.5 24.5-24.5 24.5 10.992188 24.5 24.5-10.988281 24.5-24.5 24.5zm0 0" fill="#414952"></path><path d="m273 346.527344v-31.386719l66.917969-66.914063-83.917969-198.082031.210938 327.859375c13.414062.117188 24.289062 11.058594 24.289062 24.496094s-10.875 24.378906-24.289062 24.496094v34c32.160156-.117188 58.289062-26.308594 58.289062-58.496094 0-26.347656-17.507812-48.671875-41.5-55.972656zm0 0" fill="#23272b"></path></svg>